<?xml version="1.0" encoding="UTF-8"?> <!-- Generator: Adobe Illustrator 23.0.4, SVG Export Plug-In . SVG Version: 6.00 Build 0) --> <svg xmlns="http://www.w3.org/2000/svg" xmlns:xlink="http://www.w3.org/1999/xlink" id="Layer_1" x="0px" y="0px" viewBox="0 0 361.9 65.4" style="enable-background:new 0 0 361.9 65.4;" xml:space="preserve"> <style type="text/css"> .st0{fill:#1A1A1A;} </style> <g> <g> <g> <polygon class="st0" points="95.13,43.55 100.39,43.55 100.39,44.66 96.38,44.66 96.38,46.51 99.94,46.51 99.94,47.62 96.38,47.62 96.38,49.53 100.44,49.53 100.44,50.64 95.13,50.64 "></polygon> <polygon class="st0" points="103.58,43.55 104.74,43.55 108.54,48.45 108.54,43.55 109.76,43.55 109.76,50.64 108.72,50.64 104.81,45.6 104.81,50.64 103.58,50.64 "></polygon> <polygon class="st0" points="114.99,44.7 112.74,44.7 112.74,43.55 118.49,43.55 118.49,44.7 116.24,44.7 116.24,50.64 114.99,50.64 "></polygon> <polygon class="st0" points="121.47,43.55 126.73,43.55 126.73,44.66 122.71,44.66 122.71,46.51 126.27,46.51 126.27,47.62 122.71,47.62 122.71,49.53 126.78,49.53 126.78,50.64 121.47,50.64 "></polygon> <path class="st0" d="M129.91,43.55h3.16c0.89,0,1.59,0.26,2.05,0.71c0.37,0.39,0.59,0.91,0.59,1.53v0.02 c0,1.17-0.7,1.86-1.68,2.15l1.92,2.68h-1.48l-1.74-2.47h-1.56v2.47h-1.25v-7.09H129.91z M132.98,47.07 c0.89,0,1.46-0.47,1.46-1.19v-0.02c0-0.76-0.55-1.17-1.47-1.17h-1.81v2.38C131.16,47.07,132.98,47.07,132.98,47.07z"></path> <path class="st0" d="M138.9,43.55h2.8c1.66,0,2.69,0.94,2.69,2.37v0.02c0,1.59-1.28,2.42-2.84,2.42h-1.41v2.28h-1.25L138.9,43.55 L138.9,43.55z M141.59,47.24c0.94,0,1.53-0.53,1.53-1.27v-0.02c0-0.83-0.6-1.27-1.53-1.27h-1.45v2.55h1.45V47.24z"></path> <path class="st0" d="M147.33,43.55h3.16c0.89,0,1.59,0.26,2.05,0.71c0.37,0.39,0.59,0.91,0.59,1.53v0.02 c0,1.17-0.7,1.86-1.68,2.15l1.92,2.68h-1.48l-1.74-2.47h-1.56v2.47h-1.25v-7.09H147.33z M150.39,47.07 c0.89,0,1.46-0.47,1.46-1.19v-0.02c0-0.76-0.55-1.17-1.47-1.17h-1.81v2.38C148.57,47.07,150.39,47.07,150.39,47.07z"></path> <rect x="156.38" y="43.55" class="st0" width="1.25" height="7.09"></rect> <path class="st0" d="M160.7,49.61l0.75-0.89c0.68,0.59,1.37,0.92,2.24,0.92c0.77,0,1.26-0.37,1.26-0.89v-0.02 c0-0.5-0.28-0.78-1.6-1.08c-1.51-0.36-2.36-0.81-2.36-2.12V45.5c0-1.21,1.01-2.06,2.42-2.06c1.03,0,1.85,0.31,2.57,0.89 l-0.67,0.94c-0.64-0.48-1.28-0.73-1.92-0.73c-0.73,0-1.15,0.37-1.15,0.84v0.02c0,0.55,0.32,0.79,1.69,1.12 c1.5,0.36,2.27,0.9,2.27,2.08v0.02c0,1.33-1.04,2.12-2.53,2.12C162.57,50.74,161.55,50.37,160.7,49.61"></path> <polygon class="st0" points="169.32,43.55 174.58,43.55 174.58,44.66 170.57,44.66 170.57,46.51 174.12,46.51 174.12,47.62 170.57,47.62 170.57,49.53 174.63,49.53 174.63,50.64 169.32,50.64 "></polygon> <path class="st0" d="M182.46,43.55h2.64c2.23,0,3.77,1.53,3.77,3.53v0.02c0,1.99-1.54,3.54-3.77,3.54h-2.64V43.55z M183.71,44.68 v4.82h1.4c1.49,0,2.46-1,2.46-2.39V47.1c0-1.39-0.97-2.41-2.46-2.41L183.71,44.68L183.71,44.68z"></path> <rect x="192.11" y="43.55" class="st0" width="1.25" height="7.09"></rect> <path class="st0" d="M196.6,47.11v-0.02c0-1.98,1.52-3.67,3.66-3.67c1.23,0,1.99,0.35,2.73,0.96l-0.79,0.94 c-0.55-0.47-1.08-0.76-1.98-0.76c-1.31,0-2.3,1.14-2.3,2.5v0.02c0,1.46,0.96,2.53,2.41,2.53c0.67,0,1.28-0.21,1.71-0.54v-1.33 h-1.81v-1.08h3.02v2.98c-0.7,0.6-1.7,1.1-2.96,1.1C198.05,50.76,196.6,49.18,196.6,47.11"></path> <rect x="206.58" y="43.55" class="st0" width="1.25" height="7.09"></rect> <polygon class="st0" points="213.12,44.7 210.87,44.7 210.87,43.55 216.63,43.55 216.63,44.7 214.38,44.7 214.38,50.64 213.12,50.64 "></polygon> <path class="st0" d="M221.2,43.5h1.16l3.12,7.14h-1.32l-0.72-1.71h-3.35l-0.73,1.71h-1.28L221.2,43.5z M222.99,47.82l-1.23-2.84 l-1.22,2.84H222.99z"></path> <polygon class="st0" points="228.35,43.55 229.6,43.55 229.6,49.51 233.33,49.51 233.33,50.64 228.35,50.64 "></polygon> <polygon class="st0" points="242.72,44.7 240.47,44.7 240.47,43.55 246.22,43.55 246.22,44.7 243.98,44.7 243.98,50.64 242.72,50.64 "></polygon> <path class="st0" d="M249.2,43.55h3.16c0.89,0,1.59,0.26,2.05,0.71c0.37,0.39,0.59,0.91,0.59,1.53v0.02 c0,1.17-0.7,1.86-1.68,2.15l1.91,2.68h-1.48l-1.74-2.47h-1.56v2.47h-1.25L249.2,43.55L249.2,43.55z M252.27,47.07 c0.89,0,1.46-0.47,1.46-1.19v-0.02c0-0.76-0.55-1.17-1.47-1.17h-1.81v2.38C250.45,47.07,252.27,47.07,252.27,47.07z"></path> <path class="st0" d="M260.7,43.5h1.16l3.12,7.14h-1.32l-0.72-1.71h-3.35l-0.73,1.71h-1.28L260.7,43.5z M262.48,47.82l-1.23-2.84 l-1.22,2.84H262.48z"></path> <polygon class="st0" points="267.85,43.55 269,43.55 272.8,48.45 272.8,43.55 274.03,43.55 274.03,50.64 272.98,50.64 269.07,45.6 269.07,50.64 267.85,50.64 "></polygon> <path class="st0" d="M277.04,49.61l0.75-0.89c0.68,0.59,1.37,0.92,2.24,0.92c0.77,0,1.26-0.37,1.26-0.89v-0.02 c0-0.5-0.28-0.78-1.6-1.08c-1.51-0.36-2.36-0.81-2.36-2.12V45.5c0-1.21,1.01-2.06,2.42-2.06c1.03,0,1.85,0.31,2.57,0.89 l-0.67,0.94c-0.64-0.48-1.28-0.73-1.93-0.73c-0.73,0-1.15,0.37-1.15,0.84v0.02c0,0.55,0.32,0.79,1.69,1.12 c1.5,0.36,2.27,0.9,2.27,2.08v0.02c0,1.33-1.04,2.12-2.53,2.12C278.91,50.74,277.89,50.37,277.04,49.61"></path> <polygon class="st0" points="285.65,43.55 290.93,43.55 290.93,44.68 286.9,44.68 286.9,46.62 290.48,46.62 290.48,47.75 286.9,47.75 286.9,50.64 285.65,50.64 "></polygon> <path class="st0" d="M293.59,47.11v-0.02c0-1.99,1.54-3.67,3.72-3.67s3.7,1.65,3.7,3.65v0.02c0,2-1.54,3.67-3.72,3.67 C295.1,50.76,293.59,49.11,293.59,47.11 M299.69,47.11v-0.02c0-1.38-1-2.52-2.41-2.52s-2.39,1.12-2.39,2.5v0.02 c0,1.38,1,2.51,2.41,2.51C298.71,49.61,299.69,48.49,299.69,47.11"></path> <path class="st0" d="M304.17,43.55h3.16c0.89,0,1.59,0.26,2.05,0.71c0.37,0.39,0.59,0.91,0.59,1.53v0.02 c0,1.17-0.7,1.86-1.68,2.15l1.92,2.68h-1.48l-1.74-2.47h-1.56v2.47h-1.25v-7.09H304.17z M307.24,47.07 c0.89,0,1.46-0.47,1.46-1.19v-0.02c0-0.76-0.55-1.17-1.47-1.17h-1.81v2.38C305.42,47.07,307.24,47.07,307.24,47.07z"></path> <polygon class="st0" points="313.15,43.55 314.48,43.55 316.64,46.9 318.8,43.55 320.12,43.55 320.12,50.64 318.88,50.64 318.88,45.56 316.64,48.9 316.6,48.9 314.38,45.58 314.38,50.64 313.15,50.64 "></polygon> <path class="st0" d="M326.12,43.5h1.16l3.12,7.14h-1.32l-0.72-1.71h-3.35l-0.73,1.71H323L326.12,43.5z M327.9,47.82l-1.23-2.84 l-1.22,2.84H327.9z"></path> <polygon class="st0" points="334.1,44.7 331.85,44.7 331.85,43.55 337.61,43.55 337.61,44.7 335.36,44.7 335.36,50.64 334.1,50.64 "></polygon> <rect x="340.65" y="43.55" class="st0" width="1.25" height="7.09"></rect> <path class="st0" d="M345.14,47.11v-0.02c0-1.99,1.54-3.67,3.72-3.67s3.7,1.65,3.7,3.65v0.02c0,2-1.54,3.67-3.72,3.67 C346.66,50.76,345.14,49.11,345.14,47.11 M351.24,47.11v-0.02c0-1.38-1-2.52-2.41-2.52s-2.39,1.12-2.39,2.5v0.02 c0,1.38,1,2.51,2.41,2.51S351.24,48.49,351.24,47.11"></path> <polygon class="st0" points="355.72,43.55 356.88,43.55 360.68,48.45 360.68,43.55 361.9,43.55 361.9,50.64 360.86,50.64 356.95,45.6 356.95,50.64 355.72,50.64 "></polygon> <g> <path class="st0" d="M100.13,18.14h-5v-3.33h13.6v3.33h-5v13.09h-3.61V18.14H100.13z"></path> <path class="st0" d="M125.59,14.82h7.51c2.09,0,3.71,0.59,4.78,1.66c0.91,0.91,1.41,2.21,1.41,3.75v0.05 c0,2.65-1.43,4.32-3.52,5.09l4.01,5.86h-4.22l-3.52-5.25h-2.84v5.25h-3.61L125.59,14.82L125.59,14.82z M132.86,22.79 c1.76,0,2.77-0.94,2.77-2.32v-0.05c0-1.55-1.08-2.35-2.84-2.35h-3.59v4.71L132.86,22.79L132.86,22.79z"></path> <path class="st0" d="M162.26,14.7h3.33l7.04,16.54h-3.78l-1.5-3.68h-6.94l-1.5,3.68h-3.68L162.26,14.7z M166.06,24.36 l-2.18-5.32l-2.18,5.32H166.06z"></path> <path class="st0" d="M189.24,14.82h3.33l7.69,10.11V14.82h3.57v16.42h-3.07l-7.95-10.44v10.44h-3.57V14.82z"></path> <path class="st0" d="M220.73,28.84l2.13-2.56c1.48,1.22,3.03,1.99,4.9,1.99c1.48,0,2.37-0.59,2.37-1.55v-0.05 c0-0.91-0.56-1.38-3.31-2.09c-3.31-0.84-5.44-1.76-5.44-5.02v-0.05c0-2.98,2.39-4.95,5.75-4.95c2.39,0,4.43,0.75,6.1,2.09 l-1.88,2.72c-1.45-1.01-2.88-1.62-4.27-1.62c-1.38,0-2.11,0.63-2.11,1.43v0.05c0,1.08,0.7,1.43,3.54,2.16 c3.33,0.87,5.21,2.06,5.21,4.93v0.05c0,3.26-2.49,5.09-6.03,5.09C225.21,31.47,222.7,30.6,220.73,28.84z"></path> <path class="st0" d="M250.95,14.82h12.5v3.28h-8.89v3.49h7.83v3.28h-7.83v6.36h-3.61L250.95,14.82L250.95,14.82z"></path> <path class="st0" d="M279.69,23.07v-0.05c0-4.67,3.68-8.49,8.75-8.49s8.7,3.78,8.7,8.44v0.05c0,4.67-3.68,8.49-8.75,8.49 C283.33,31.51,279.69,27.74,279.69,23.07z M293.37,23.07v-0.05c0-2.81-2.06-5.16-4.97-5.16s-4.93,2.3-4.93,5.11v0.05 c0,2.81,2.06,5.16,4.97,5.16S293.37,25.88,293.37,23.07z"></path> <path class="st0" d="M314.44,14.82h7.51c2.09,0,3.71,0.59,4.78,1.66c0.91,0.91,1.41,2.21,1.41,3.75v0.05 c0,2.65-1.43,4.32-3.52,5.09l4.01,5.86h-4.22l-3.52-5.25h-2.84v5.25h-3.61L314.44,14.82L314.44,14.82z M321.71,22.79 c1.76,0,2.77-0.94,2.77-2.32v-0.05c0-1.55-1.08-2.35-2.84-2.35h-3.59v4.71L321.71,22.79L321.71,22.79z"></path> <path class="st0" d="M345.48,14.82h3.89l4.31,6.94l4.32-6.94h3.89v16.42h-3.59V20.51l-4.62,7.01h-0.09l-4.57-6.94v10.65h-3.54 L345.48,14.82L345.48,14.82z"></path> </g> </g> </g> <g> <g> <polygon class="st0" points="0,0 0,7.27 58.13,7.27 58.13,29.07 14.53,29.07 14.53,36.33 58.13,36.33 58.13,58.13 0,58.13 0,65.4 65.4,65.4 65.4,0 "></polygon> <polygon class="st0" points="50.87,43.6 7.27,43.6 7.27,21.8 50.87,21.8 50.87,14.53 0,14.53 0,50.87 50.87,50.87 "></polygon> </g> </g> </g> </svg> 