<?xml version="1.0" encoding="utf-8" ?>
<!DOCTYPE svg PUBLIC "-//W3C//DTD SVG 1.1//EN" "http://www.w3.org/Graphics/SVG/1.1/DTD/svg11.dtd">
<svg xmlns="http://www.w3.org/2000/svg" id="Layer_1" data-name="Layer 1" viewBox="0 0 270 270.02"><defs><style>.cls-1{fill:#1a1a1a;}.cls-2{fill:#4899c3;}</style></defs><rect class="cls-1" x="180" y="30" width="30" height="120"/><polygon class="cls-1" points="90 30 180 30 180 0 90 0 60 0 60 30 60 90 60 180 90 180 180 180 180 150 90 150 90 30"/><rect class="cls-1" x="120" y="240.02" width="30" height="30"/><polygon class="cls-1" points="30 210.02 120 210.02 120 240.02 0 240.02 0 0.02 30 0.02 30 210.02"/><line class="cls-2" y1="270.02" y2="0.02"/><polygon class="cls-1" points="240 210 240 0 270 0 270 240 150 240 150 210 240 210"/></svg>